# Aspose.3D Wavefront OBJ Exporter
# Copyright 2004-2025 Aspose Pty Ltd.
# File created: 05/18/2026 12:54:59

mtllib material.lib
g fireplace

#
# object fireplace
#

v -16.51958 4.820872 -7.542284
v -16.519583 4.820872 4.3319216
v -18.56229 4.820872 4.331922
v 16.519585 4.8208704 -7.54228
v 18.562288 4.8208704 5.2872977
v 29.921192 46.333717 10.133535
v 29.92119 47.063686 10.133535
v -29.921188 47.063686 10.133529
v -30.392519 47.063686 10.604859
v -30.392515 47.063686 -11.795429
v -29.921186 47.063686 -11.795429
v -33.559513 50.94573 13.771851
v 33.559513 50.945724 13.771859
v 29.921192 46.333717 -11.795422
v 29.921194 47.063686 -11.795422
v 33.559517 50.945724 -11.795422
v 33.559517 52.1289 -11.795422
v 33.559513 52.128902 13.77186
v -29.921188 46.33372 10.13353
v -29.921186 46.33372 -11.795429
v -33.55951 52.128902 -11.79543
v -33.559513 52.128906 13.771852
v 18.562292 31.430243 4.3319244
v -18.56229 31.430244 6.286194
v -16.519579 26.339201 -7.542284
v 16.51958 4.8208704 4.331926
v 16.519585 26.3392 -7.54228
v 32.724747 50.945724 -11.795421
v 31.405132 49.82132 11.617477
v 31.405134 49.82132 -11.795422
v 30.955975 48.715893 -11.795422
v 30.901525 47.765392 -11.795422
v 30.392519 47.41454 10.604866
v 30.392523 47.41454 -11.795422
v 30.392523 47.063686 -11.795422
v -18.562292 2.2035723 6.286194
v -18.56229 2.2035723 5.6063366
v -18.56229 4.5018296 5.6063366
v -18.56229 4.820872 5.2872934
v -18.56229 31.430244 4.33192
v -20.76099 2.2035725 6.2861934
v -21.246794 10.456528 6.2861934
v -21.246796 38.266342 8.106352
v -20.808979 38.622143 6.2861934
v -20.808979 38.977943 6.2861934
v -21.246796 39.33374 8.106352
v -21.246792 46.33372 6.2861934
v -21.246796 46.33372 8.106352
v -21.858204 2.2035725 8.592155
v -20.760994 2.2035725 8.592155
v -20.760994 9.769418 8.592155
v -21.246798 10.456528 8.106352
v -22.335596 10.456528 8.106352
v -20.808983 38.622143 8.544166
v -20.808983 38.977943 8.544166
v -28.970953 2.2035725 -11.79542
v -28.970955 2.2035728 8.592154
v -28.970953 9.769416 -11.79542
v -28.485155 10.456528 8.106352
v -28.48515 10.456528 -11.79542
v -28.48515 38.26635 -11.795419
v -28.922962 38.622143 -11.795419
v -28.922962 38.977943 -11.795419
v -28.922968 38.977943 8.544165
v -28.48515 39.33374 -11.795419
v -28.485153 46.33372 8.106352
v -28.48515 46.33372 -11.79542
v -27.873747 9.769416 9.226973
v -22.335596 10.456528 8.741171
v -22.335594 38.266342 8.741171
v -21.89778 38.622143 9.178985
v -27.834167 38.622143 9.178984
v -21.89778 38.977943 9.178985
v -27.834167 38.977943 9.178984
v -22.335594 39.33374 8.741171
v -27.396357 39.33374 8.741171
v -22.335594 46.333717 8.741171
v -27.396357 46.333717 8.741171
v 18.562288 4.501828 5.606341
v 18.56229 2.2035706 6.286198
v 18.562288 2.2035706 5.606341
v 27.873743 2.2035704 8.592161
v 28.970953 9.769416 8.592161
v 27.396353 10.456525 8.106359
v 27.396355 38.26634 8.106359
v 28.922966 38.62214 8.544171
v 27.83417 38.977943 8.544171
v 27.396355 46.333717 8.106359
v 21.858202 2.2035706 8.592159
v 21.858202 9.769414 9.226977
v 22.335592 38.26634 8.741177
v 21.89778 38.622143 9.178989
v 21.89778 38.622143 8.54417
v 21.89778 38.977943 9.178989
v 22.335592 46.333714 8.741177
v 22.335592 46.333717 8.106358
v 27.396355 39.33374 8.106359
v 27.83417 38.977943 9.17899
v 27.83417 38.62214 9.17899
v 27.83417 38.62214 8.544171
v 27.396355 38.26634 8.741178
v 27.873743 9.769414 9.226979
v 27.873743 9.769416 8.592161
v 27.873743 2.2035697 9.226979
v 30.392519 47.063686 10.604866
v 30.901522 47.765392 11.113866
v 30.95597 48.715893 11.168315
v 32.72474 50.945724 12.937084
v -32.72474 50.94573 12.937076
v -33.55951 50.94573 -11.79543
v -32.724735 50.94573 -11.79543
v -31.40513 49.821323 11.617471
v -31.405128 49.821323 -11.795429
v -30.955969 48.715897 11.168308
v -30.955967 48.715897 -11.795429
v -30.901522 47.765396 11.11386
v -30.901518 47.765396 -11.795429
v -30.392519 47.414543 10.604859
v -30.392515 47.414543 -11.795429
v -28.970955 9.769418 8.592154
v -28.485153 38.266342 8.106352
v -28.922968 38.622143 8.544165
v -27.834167 38.977943 8.544165
v -28.485153 39.33374 8.106352
v -27.396357 46.33372 8.106352
v -21.858204 9.769416 9.226974
v -21.858204 2.2035718 9.226974
v -21.858204 9.769418 8.592155
v -22.335594 38.266342 8.106352
v -21.89778 38.622143 8.544166
v -21.89778 38.977943 8.544166
v -22.335594 39.33374 8.106352
v -22.335594 46.33372 8.106352
v -27.396357 39.33374 8.106352
v -27.834167 38.622143 8.544165
v -27.396357 38.266342 8.741171
v -27.396357 38.266342 8.106352
v -27.396357 10.456528 8.741171
v -27.396357 10.456528 8.106352
v -27.873747 9.769418 8.592154
v -27.873747 2.203572 9.226973
v -27.873747 2.2035728 8.592154
v 16.519583 29.223682 4.331924
v 18.562288 4.8208704 4.3319263
v -16.519583 29.223684 4.3319206
v 21.246798 38.26634 6.2861986
v 21.246796 38.26634 8.106358
v 20.80898 38.977943 8.54417
v 21.246798 39.33374 6.2861986
v 21.246796 46.333717 8.106358
v 20.76099 9.769416 8.592159
v 20.76099 2.2035706 8.592159
v 21.858202 9.769416 8.592159
v 21.246794 10.456526 8.106358
v 22.335592 10.456526 8.106358
v 22.335592 38.26634 8.106358
v 20.80898 38.622143 8.54417
v 21.89778 38.977943 8.54417
v 21.246796 39.33374 8.106358
v 22.335592 39.33374 8.106358
v 28.970953 2.2035701 8.592161
v 28.970955 2.20357 -11.795413
v 28.970955 9.769414 -11.795413
v 28.485151 10.456525 8.106359
v 28.485155 10.456525 -11.795413
v 28.485151 38.26634 8.106359
v 28.485157 38.266346 -11.795412
v 28.922972 38.62214 -11.795412
v 28.922972 38.977943 -11.795412
v 28.922966 38.977943 8.544171
v 28.485157 39.33374 -11.795412
v 28.485151 39.33374 8.106359
v 28.485153 46.333717 8.106359
v 28.485157 46.333717 -11.795413
v 21.858202 2.20357 9.226977
v 22.335592 10.456526 8.741177
v 27.396353 10.456525 8.741178
v 22.335592 39.33374 8.741177
v 27.396355 39.33374 8.741178
v 27.396355 46.333714 8.741178
v 31.064962 -1.3578926E-06 11.826045
v 31.064968 -1.357893E-06 -11.795413
v 31.064968 1.620551 -11.795413
v 31.064962 1.620551 11.826045
v 30.692955 -1.3416318E-06 12.198054
v 30.481945 2.2035701 11.243025
v 30.481949 2.2035701 -11.795413
v 30.692957 1.6205511 12.198054
v -30.69296 1.341632E-06 12.198048
v -30.10994 2.2035728 11.615029
v -30.481945 2.2035728 -11.79542
v 30.109938 2.2035701 11.615036
v -30.69296 1.6205537 12.198048
v -31.064968 1.6205537 11.826038
v -30.481949 2.2035728 11.243018
v -31.064962 1.6205537 -11.79542
v -31.064962 1.3578926E-06 -11.79542
v -31.064968 1.357893E-06 11.826038
v -21.246794 39.33374 6.2861934
v 21.246798 46.333717 6.2861986
v 20.808983 38.977943 6.2861986
v 20.808983 38.622143 6.2861986
v -21.246794 38.266342 6.2861934
v -20.76099 9.769416 6.2861934
v 18.562292 31.430243 6.286198
v 21.246796 10.456526 6.2861986
v 20.760992 9.769414 6.2861986
v 20.760992 2.2035706 6.2861986
# 208 vertices

vn -4.371139E-08 -1 0
vn -4.371139E-08 -1 0
vn -4.371139E-08 -1 0
vn 4.371139E-08 1 0
vn 4.371139E-08 1 0
vn 4.371139E-08 1 0
vn 0.0013052896 0.99884987 0.04792989
vn 4.371139E-08 1 0
vn 4.371139E-08 1 0
vn 4.371139E-08 1 0
vn 0.0013052896 0.99884987 0.04792989
vn -1.7881393E-07 0.7071078 0.7071057
vn -0.004107982 0.918841 0.39460683
vn 4.371139E-08 1 0
vn -0.004107982 0.918841 0.39460683
vn 4.371139E-08 1 0
vn 4.371139E-08 1 0
vn -1.7881393E-07 0.7071078 0.7071057
vn -1.7881393E-07 0.7071078 0.7071057
vn -0.004107982 0.918841 0.39460683
vn -2.3841858E-07 5.3290705E-15 0.99999994
vn -2.3841858E-07 5.3290705E-15 0.99999994
vn -2.3841858E-07 5.3290705E-15 0.99999994
vn -2.3841858E-07 5.3290705E-15 0.99999994
vn -1.7881393E-07 -3.4248922E-13 1
vn -2.3841858E-07 -3.8113572E-13 0.99999994
vn -2.3841858E-07 1.2586153E-06 0.99999994
vn -1.7881393E-07 1.2586153E-06 1
vn -4.371139E-08 -1 0
vn -4.371139E-08 -1 0
vn -4.371139E-08 -1 0
vn -4.371139E-08 -1 0
vn -4.371139E-08 -1 0
vn -4.371139E-08 -1 0
vn -4.371139E-08 -1 0
vn -4.371139E-08 -1 0
vn -0.99999994 4.371118E-08 -2.3841858E-07
vn -0.99999994 4.371118E-08 -2.3841858E-07
vn -0.99999994 4.371139E-08 -2.3841858E-07
vn -0.99999994 4.371139E-08 -2.3841858E-07
vn -0.99999994 4.3711612E-08 -3.5762787E-07
vn -0.99999994 4.3711612E-08 -3.5762787E-07
vn -0.99999994 4.371139E-08 -3.5762787E-07
vn -0.99999994 4.371139E-08 -3.5762787E-07
vn -4.371139E-08 -1 0
vn -4.371139E-08 -1 0
vn -4.371139E-08 -1 0
vn -4.371139E-08 -1 0
vn -2.3841858E-07 -7.7650606E-07 0.99999994
vn -2.3841858E-07 -7.7650606E-07 0.99999994
vn -2.3841858E-07 -7.7650606E-07 0.99999994
vn -2.3841858E-07 -7.7650606E-07 0.99999994
vn 0.99999994 2.473519E-06 1.1920929E-07
vn 0.99999994 -4.371139E-08 1.1920929E-07
vn 0.99999994 -4.371139E-08 2.3841858E-07
vn 0.99999994 2.473519E-06 2.3841858E-07
vn 0.99999994 -4.3711612E-08 3.5762787E-07
vn 0.99999994 -4.371139E-08 3.5762787E-07
vn 0.99999994 -4.371139E-08 3.5762787E-07
vn 0.99999994 -4.3711612E-08 3.5762787E-07
vn -4.371139E-08 -1 0
vn -4.371139E-08 -1 0
vn -4.371139E-08 -1 0
vn -4.371139E-08 -1 0
vn 4.3711417E-08 1 -1.4373788E-07
vn 4.3711417E-08 1 -1.4373788E-07
vn 4.3711417E-08 1 -1.4373788E-07
vn 4.3711417E-08 1 -1.4373788E-07
vn -8.940697E-08 -0.97173977 0.23605509
vn -8.940697E-08 -0.97173977 0.23605509
vn -8.940697E-08 -0.97173977 0.2360551
vn -8.940697E-08 -0.97173977 0.2360551
vn 0.99999994 -4.371137E-08 3.5762787E-07
vn 0.99999994 -4.371139E-08 3.5762787E-07
vn 0.99999994 -4.371139E-08 3.5762787E-07
vn 0.99999994 -4.371137E-08 3.5762787E-07
vn -4.371139E-08 -1 0
vn -4.371139E-08 -1 0
vn -4.371139E-08 -1 0
vn -4.371139E-08 -1 0
vn -2.3841858E-07 5.3290705E-15 0.99999994
vn -2.3841858E-07 5.3290705E-15 0.99999994
vn -2.3841858E-07 5.3290705E-15 0.99999994
vn -2.3841858E-07 5.3290705E-15 0.99999994
vn -0.99999994 4.3711363E-08 -3.5762787E-07
vn -0.99999994 4.3711363E-08 -3.5762787E-07
vn -0.99999994 4.371139E-08 -3.5762787E-07
vn -0.99999994 4.371139E-08 -3.5762787E-07
vn -4.371139E-08 -1 0
vn -4.371139E-08 -1 0
vn -4.371139E-08 -1 0
vn -4.371139E-08 -1 0
vn 0.6485634 -0.7611607 1.7881393E-07
vn 0.64856434 -0.76115984 1.7881393E-07
vn 0.7387248 -0.6740072 1.1920929E-07
vn 0.7807134 -0.62488943 1.7881393E-07
vn 0.7807134 -0.62488943 1.7881393E-07
vn 0.7387248 -0.6740072 1.1920929E-07
vn 0.9662279 -0.25768927 1.1920929E-07
vn 0.97107166 -0.23878823 1.7881393E-07
vn 0.97107166 -0.23878823 1.7881393E-07
vn 0.9662279 -0.25768927 1.1920929E-07
vn 0.9983633 -0.05719056 2.3841858E-07
vn 0.9983633 -0.057190552 2.3841858E-07
vn 0.56753415 -0.82334983 5.9604645E-08
vn 0.5675326 -0.8233509 5.9604645E-08
vn 0.56753266 -0.8233509 1.1920929E-07
vn 0.5675342 -0.82334983 1.1920929E-07
vn 1 -4.371139E-08 2.9802322E-07
vn 1 -4.371139E-08 2.9802322E-07
vn 1 -4.371139E-08 2.9802322E-07
vn 1 -4.371139E-08 2.9802322E-07
vn 0.99999994 -4.371139E-08 2.7418137E-06
vn 0.99999994 -4.371139E-08 2.7418137E-06
vn 0.99999994 -1.04334354E-08 1.4305115E-06
vn 0.99999994 1.4920332E-09 9.536743E-07
vn 0.99999994 1.4920332E-09 9.536743E-07
vn 0.99999994 -1.04334354E-08 1.4305115E-06
vn 0.99999994 2.4093744E-08 1.1920929E-07
vn 0.99999994 2.4093744E-08 1.1920929E-07
vn 0.99999994 2.5342977E-08 5.9604645E-08
vn 0.99999994 2.5342977E-08 5.9604645E-08
vn 0.99999994 1.4920332E-09 9.536743E-07
vn 0.99999994 -4.371139E-08 1.66893E-06
vn 0.99999994 -4.371139E-08 1.66893E-06
vn 0.9985916 0.05305466 1.5497208E-06
vn 0.9993407 0.036307037 1.6093254E-06
vn 0.9993407 0.036307037 1.6093254E-06
vn 0.9985916 0.05305466 1.5497208E-06
vn 0.9998145 0.019257015 2.0861626E-06
vn 0.9996763 0.025441112 2.0861626E-06
vn 0.9996763 0.025441112 2.0861626E-06
vn 0.9998145 0.019257015 2.0861626E-06
vn 0.9999999 -4.371139E-08 2.0861626E-06
vn 0.9999999 -4.371139E-08 2.0861626E-06
vn 0.6306746 -0.7760475 1.013279E-06
vn 0.6306745 -0.7760475 1.2516975E-06
vn 0.6306751 -0.77604693 1.3113022E-06
vn 0.6306751 -0.77604693 1.0728836E-06
vn 0.99999994 -4.371139E-08 1.66893E-06
vn 0.99999994 -4.371139E-08 1.66893E-06
vn 0.99999994 -4.371139E-08 1.66893E-06
vn 0.99999994 -4.371139E-08 1.66893E-06
vn 0.63067055 0.77605087 1.3113022E-06
vn 0.63067067 0.7760506 1.0728836E-06
vn 0.63067126 0.77605015 1.0728836E-06
vn 0.63067126 0.77605015 1.3113022E-06
vn 0.9999999 -4.371139E-08 2.0861626E-06
vn 0.9999999 -4.371139E-08 2.0861626E-06
vn 0.9999999 -4.371139E-08 2.0861626E-06
vn 0.9999999 -4.371139E-08 2.0861626E-06
vn -5.9604645E-08 0 0.99999994
vn -5.9604645E-08 0 0.99999994
vn -5.9604645E-08 0.04018568 0.9991922
vn -5.9604645E-08 0.075642265 0.997135
vn -5.9604645E-08 0.075642265 0.997135
vn -5.9604645E-08 0.04018568 0.9991922
vn -5.9604645E-08 0.02262702 0.99974394
vn 0 0.011581583 0.99993294
vn 0 0.011581583 0.99993294
vn -5.9604645E-08 0.02262702 0.99974394
vn -5.9604645E-08 0 0.99999994
vn -5.9604645E-08 0 0.99999994
vn 0 -0.7760463 0.630676
vn 0 -0.7760463 0.630676
vn 0 -0.7760463 0.630676
vn 0 -0.7760463 0.630676
vn -5.9604645E-08 0 0.99999994
vn -5.9604645E-08 0 0.99999994
vn -5.9604645E-08 0 0.99999994
vn -5.9604645E-08 0 0.99999994
vn 0 0.7760495 0.63067204
vn 0 0.7760495 0.63067204
vn 0 0.7760495 0.63067204
vn 0 0.7760495 0.63067204
vn -5.9604645E-08 0 0.99999994
vn -5.9604645E-08 0 0.99999994
vn -5.9604645E-08 0 0.99999994
vn -5.9604645E-08 0 0.99999994
vn -0.99999994 4.371139E-08 -2.3841858E-07
vn -0.99999994 4.371139E-08 -2.3841858E-07
vn -0.99920446 0.039878502 -2.3841858E-07
vn -0.99830943 0.058121987 -2.3841858E-07
vn -0.99830943 0.058121987 -2.3841858E-07
vn -0.99920446 0.039878502 -2.3841858E-07
vn -0.99973994 0.02280883 -2.9802322E-07
vn -0.9998513 0.017247964 -3.5762787E-07
vn -0.9998513 0.017247964 -3.5762787E-07
vn -0.99973994 0.02280883 -2.9802322E-07
vn -0.99999994 4.371139E-08 -3.5762787E-07
vn -0.99999994 4.37114E-08 -3.5762787E-07
vn -0.6306673 -0.7760534 -1.7881393E-07
vn -0.6306673 -0.7760534 -4.7683716E-07
vn -0.6306754 -0.7760467 -5.364418E-07
vn -0.6306753 -0.7760468 -1.7881393E-07
vn -0.99999994 4.3711353E-08 -3.5762787E-07
vn -0.99999994 4.371139E-08 -3.5762787E-07
vn -0.99999994 4.371139E-08 -3.5762787E-07
vn -0.99999994 4.3711353E-08 -3.5762787E-07
vn -2.3841858E-07 5.3290705E-15 0.99999994
vn -2.3841858E-07 5.3290705E-15 0.99999994
vn -2.3841858E-07 0.03755753 0.9992945
vn -2.3841858E-07 0.0375576 0.9992945
vn -2.3841858E-07 0.0375576 0.9992945
vn -2.3841858E-07 0.03755753 0.9992945
vn -2.3841858E-07 0.024508722 0.99969953
vn -2.3841858E-07 0.024508713 0.99969953
vn -2.3841858E-07 0.024508713 0.99969953
vn -2.3841858E-07 0.024508722 0.99969953
vn -2.3841858E-07 8.881784E-15 0.99999994
vn -2.3841858E-07 8.881784E-15 0.99999994
vn -1.1920929E-07 -0.77604645 0.6306759
vn -1.7881393E-07 -0.7760462 0.630676
vn -1.7881393E-07 -0.7760462 0.630676
vn -1.7881393E-07 -0.7760464 0.6306758
vn -2.3841858E-07 5.3290705E-15 0.99999994
vn -2.3841858E-07 5.3290705E-15 0.99999994
vn -2.3841858E-07 5.3290705E-15 0.99999994
vn -2.3841858E-07 5.3290705E-15 0.99999994
vn -1.1920929E-07 0.7760495 0.63067186
vn -5.9604645E-08 0.77604944 0.63067204
vn -1.1920929E-07 0.77604944 0.6306721
vn -1.7881393E-07 0.7760495 0.6306719
vn -2.3841858E-07 8.881784E-15 0.99999994
vn -2.3841858E-07 8.881784E-15 0.99999994
vn -2.3841858E-07 8.881784E-15 0.99999994
vn -2.3841858E-07 8.881784E-15 0.99999994
vn -0.99999994 1.12765754E-07 -5.9604645E-08
vn -0.99999994 1.12765754E-07 -5.9604645E-08
vn -0.99999994 1.1151653E-07 -1
vn -0.99999994 8.845957E-08 8.34465E-07
vn -0.99999994 8.845957E-08 8.34465E-07
vn -0.99999994 1.1151653E-07 -1
vn -0.99999994 -5.2397615E-07 7.1525574E-07
vn -0.99999994 4.371136E-08 2.6226044E-06
vn -0.99999994 4.371136E-08 2.6226044E-06
vn -0.99999994 -5.2397615E-07 7.1525574E-07
vn -0.99999994 4.371139E-08 2.6226044E-06
vn -5.9604645E-08 0 0.99999994
vn -5.9604645E-08 0 0.99999994
vn -5.9604645E-08 0.04018574 0.9991922
vn -5.9604645E-08 0.07564222 0.997135
vn -5.9604645E-08 0.07564222 0.997135
vn -5.9604645E-08 0.04018574 0.9991922
vn -5.9604645E-08 0.022627003 0.99974394
vn 0 0.011581597 0.99993294
vn 0 0.011581597 0.99993294
vn -5.9604645E-08 0.022627003 0.99974394
vn -5.9604645E-08 0 0.99999994
vn -5.9604645E-08 0 0.99999994
vn 0 -0.7760463 0.630676
vn 0 -0.7760463 0.630676
vn 0 -0.7760463 0.630676
vn 0 -0.7760463 0.630676
vn -5.9604645E-08 0 0.99999994
vn -5.9604645E-08 0 0.99999994
vn -5.9604645E-08 0 0.99999994
vn -5.9604645E-08 0 0.99999994
vn 0 0.7760495 0.63067204
vn 0 0.7760495 0.63067204
vn 0 0.7760495 0.63067204
vn 0 0.7760495 0.63067204
vn -5.9604645E-08 0 0.99999994
vn -5.9604645E-08 0 0.99999994
vn -5.9604645E-08 0 0.99999994
vn -5.9604645E-08 0 0.99999994
vn -0.99999994 4.371139E-08 -5.9604645E-08
vn -0.99999994 4.371139E-08 -5.9604645E-08
vn -0.9992178 0.039545033 1.1920929E-07
vn -0.9971901 0.07491167 1.7881393E-07
vn -0.9971901 0.07491167 1.7881393E-07
vn -0.9992178 0.039545033 1.1920929E-07
vn -0.9997541 0.022178074 -5.9604645E-08
vn -0.99993694 0.011232014 -0.99993694
vn -0.99993694 0.011232014 -0.99993694
vn -0.9997541 0.022178074 -5.9604645E-08
vn -0.99999994 4.371139E-08 -5.9604645E-08
vn -0.99999994 4.371139E-08 -5.9604645E-08
vn -0.6306752 -0.77604693 -0.6306752
vn -0.6306752 -0.77604693 -0.6306752
vn -0.6306752 -0.77604693 -0.6306752
vn -0.6306752 -0.77604693 -0.6306752
vn -0.99999994 4.371139E-08 -5.9604645E-08
vn -0.99999994 4.371139E-08 -5.9604645E-08
vn -0.99999994 4.371139E-08 -5.9604645E-08
vn -0.99999994 4.371139E-08 -5.9604645E-08
vn -0.6306712 0.77605015 -0.6306712
vn -0.6306712 0.77605015 -0.6306712
vn -0.6306712 0.77605015 -0.6306712
vn -0.6306712 0.77605015 -0.6306712
vn -0.99999994 4.371139E-08 -5.9604645E-08
vn -0.99999994 4.371139E-08 -5.9604645E-08
vn -0.99999994 4.371139E-08 -5.9604645E-08
vn -0.99999994 4.371139E-08 -5.9604645E-08
vn 0.99999994 -4.371139E-08 5.9604645E-08
vn 0.99999994 -4.371139E-08 5.9604645E-08
vn 0.99999994 -4.371139E-08 5.9604645E-08
vn 0.99999994 -4.371139E-08 5.9604645E-08
vn 0.6306712 0.77605015 0.6306712
vn 0.6306712 0.77605015 0.6306712
vn 0.6306712 0.77605015 0.6306712
vn 0.6306712 0.77605015 0.6306712
vn 0.99999994 -4.371139E-08 5.9604645E-08
vn 0.99999994 -4.371139E-08 5.9604645E-08
vn 0.99999994 -4.371139E-08 5.9604645E-08
vn 0.99999994 -4.371139E-08 5.9604645E-08
vn 0.6306752 -0.77604693 0.6306752
vn 0.6306752 -0.77604693 0.6306752
vn 0.6306752 -0.77604693 0.6306752
vn 0.6306752 -0.77604693 0.6306752
vn 0.99999994 -4.371139E-08 5.9604645E-08
vn 0.99999994 -4.371139E-08 5.9604645E-08
vn 0.9997541 0.022177994 5.9604645E-08
vn 0.99993694 0.011231918 0.99993694
vn 0.99993694 0.011231918 0.99993694
vn 0.9997541 0.022177994 5.9604645E-08
vn 0.9992178 0.039544914 1.1920929E-07
vn 0.9971901 0.0749116 2.9802322E-07
vn 0.9971901 0.0749116 2.9802322E-07
vn 0.9992178 0.039544914 1.1920929E-07
vn 0.99999994 -4.371139E-08 5.9604645E-08
vn 0.99999994 -4.371139E-08 5.9604645E-08
vn -2.3841858E-07 5.3290705E-15 0.99999994
vn -2.3841858E-07 5.3290705E-15 0.99999994
vn -2.3841858E-07 5.3290705E-15 0.99999994
vn -2.3841858E-07 5.3290705E-15 0.99999994
vn -1.1920929E-07 -0.82334894 0.5675355
vn -1.1920929E-07 -0.82334894 0.5675355
vn -1.7881393E-07 -0.8233489 0.5675356
vn -1.7881393E-07 -0.8233489 0.5675356
vn -1.1920929E-07 -0.67334795 0.73932576
vn -1.7881393E-07 -0.2574776 0.96628433
vn -1.7881393E-07 -0.25747755 0.96628433
vn -1.1920929E-07 -0.6733482 0.7393255
vn -1.1920929E-07 -0.7611594 0.6485648
vn -1.1920929E-07 -0.67334795 0.73932576
vn -1.1920929E-07 -0.6733482 0.7393255
vn -1.1920929E-07 -0.7611597 0.6485645
vn -4.371139E-08 -1 0
vn -4.371139E-08 -1 0
vn -4.371139E-08 -1 0
vn -4.371139E-08 -1 0
vn -4.371139E-08 -1 0
vn -4.371139E-08 -1 0
vn -4.371139E-08 -1 0
vn -4.371139E-08 -1 0
vn -0.73872423 -0.6740077 -1.1920929E-07
vn -0.64856356 -0.7611607 -2.3841858E-07
vn -0.64856446 -0.7611598 -2.3841858E-07
vn -0.780714 -0.62488866 -1.1920929E-07
vn -0.9662279 -0.25768912 -1.7881393E-07
vn -0.73872423 -0.6740077 -1.1920929E-07
vn -0.780714 -0.62488866 -1.1920929E-07
vn -0.97107166 -0.23878814 -1.7881393E-07
vn -0.9983633 -0.05719046 -2.3841858E-07
vn -0.9662279 -0.25768912 -1.7881393E-07
vn -0.97107166 -0.23878814 -1.7881393E-07
vn -0.9983633 -0.057190463 -2.3841858E-07
vn -0.56753427 -0.8233498 -2.3841858E-07
vn -0.5675342 -0.82334983 -1.1920929E-07
vn -0.5675328 -0.8233508 -1.1920929E-07
vn -0.56753284 -0.8233508 -1.7881393E-07
vn -1 4.371139E-08 -2.9802322E-07
vn -1 4.371139E-08 -2.9802322E-07
vn -1 4.371139E-08 -2.9802322E-07
vn -1 4.371139E-08 -2.9802322E-07
vn -5.9604645E-08 0.040185742 0.9991922
vn -5.9604645E-08 0 0.99999994
vn -5.9604645E-08 0 0.99999994
vn -5.9604645E-08 0.075642146 0.997135
vn -5.9604645E-08 0.02262693 0.99974394
vn -5.9604645E-08 0.040185742 0.9991922
vn -5.9604645E-08 0.075642146 0.997135
vn 0 0.011581568 0.99993294
vn -5.9604645E-08 0 0.99999994
vn -5.9604645E-08 0.02262693 0.99974394
vn 0 0.011581568 0.99993294
vn -5.9604645E-08 0 0.99999994
vn -5.9604645E-08 0 0.99999994
vn -5.9604645E-08 0 0.99999994
vn -5.9604645E-08 0 0.99999994
vn -5.9604645E-08 0 0.99999994
vn 0 0.7760495 0.63067204
vn 0 0.7760495 0.63067204
vn 0 0.7760495 0.63067204
vn 0 0.7760495 0.63067204
vn -5.9604645E-08 0 0.99999994
vn -5.9604645E-08 0 0.99999994
vn -5.9604645E-08 0 0.99999994
vn -5.9604645E-08 0 0.99999994
vn 0.9992178 0.03954508 1.1920929E-07
vn 0.99999994 -4.371139E-08 5.9604645E-08
vn 0.99999994 -4.371139E-08 5.9604645E-08
vn 0.9971901 0.07491188 2.9802322E-07
vn 0.9997541 0.02217808 5.9604645E-08
vn 0.9992178 0.03954508 1.1920929E-07
vn 0.9971901 0.07491188 2.9802322E-07
vn 0.99993694 0.011231965 0.99993694
vn 0.99999994 -4.371139E-08 5.9604645E-08
vn 0.9997541 0.02217808 5.9604645E-08
vn 0.99993694 0.011231965 0.99993694
vn 0.99999994 -4.371139E-08 5.9604645E-08
vn 0.6306752 -0.77604693 0.6306752
vn 0.6306752 -0.77604693 0.6306752
vn 0.6306752 -0.77604693 0.6306752
vn 0.6306752 -0.77604693 0.6306752
vn 0.99999994 -4.371139E-08 5.9604645E-08
vn 0.99999994 -4.371139E-08 5.9604645E-08
vn 0.99999994 -4.371139E-08 5.9604645E-08
vn 0.99999994 -4.371139E-08 5.9604645E-08
vn 0.6306712 0.77605015 0.6306712
vn 0.6306712 0.77605015 0.6306712
vn 0.6306712 0.77605015 0.6306712
vn 0.6306712 0.77605015 0.6306712
vn 0.99999994 -4.371139E-08 5.9604645E-08
vn 0.99999994 -4.371139E-08 5.9604645E-08
vn 0.99999994 -4.371139E-08 5.9604645E-08
vn 0.99999994 -4.371139E-08 5.9604645E-08
vn -0.99999994 4.371139E-08 -5.9604645E-08
vn -0.99999994 4.371139E-08 -5.9604645E-08
vn -0.99999994 4.371139E-08 -5.9604645E-08
vn -0.99999994 4.371139E-08 -5.9604645E-08
vn -0.6306728 0.77604884 -0.6306728
vn -0.6306728 0.77604884 -0.6306728
vn -0.6306728 0.77604884 -0.6306728
vn -0.6306728 0.77604884 -0.6306728
vn -0.99999994 4.371139E-08 -5.9604645E-08
vn -0.99999994 4.371139E-08 -5.9604645E-08
vn -0.99999994 4.371139E-08 -5.9604645E-08
vn -0.99999994 4.371139E-08 -5.9604645E-08
vn -0.6306767 -0.7760456 -5.9604645E-08
vn -0.6306767 -0.7760456 -5.9604645E-08
vn -0.6306767 -0.7760456 -5.9604645E-08
vn -0.6306767 -0.7760456 -5.9604645E-08
vn -0.9997541 0.0221781 -5.9604645E-08
vn -0.99999994 4.371139E-08 -5.9604645E-08
vn -0.99999994 4.371139E-08 -5.9604645E-08
vn -0.99993694 0.011232021 -0.99993694
vn -0.9992178 0.039544974 1.1920929E-07
vn -0.9997541 0.0221781 -5.9604645E-08
vn -0.99993694 0.011232021 -0.99993694
vn -0.9971903 0.07491163 2.3841858E-07
vn -0.99999994 4.371139E-08 -5.9604645E-08
vn -0.9992178 0.039544974 1.1920929E-07
vn -0.9971903 0.07491163 2.3841858E-07
vn -0.99999994 4.371139E-08 -5.9604645E-08
vn -2.9802322E-07 4.3496193E-09 0.9999999
vn -2.9802322E-07 7.5298445E-08 0.9999999
vn -2.9802322E-07 6.9054394E-08 0.9999999
vn -2.9802322E-07 4.892091E-09 0.9999999
vn -2.3841858E-07 6.153658E-08 0.99999994
vn -2.9802322E-07 4.3496193E-09 0.9999999
vn -2.9802322E-07 4.892091E-09 0.9999999
vn -2.3841858E-07 6.4162364E-08 0.99999994
vn -2.3841858E-07 6.153658E-08 0.99999994
vn -2.3841858E-07 6.4162364E-08 0.99999994
vn -5.9604645E-08 6.9054366E-08 0.99999994
vn -5.9604645E-08 5.6473823E-08 0.99999994
vn -0.9985916 0.053054787 -8.34465E-07
vn -0.99999994 4.371139E-08 -8.34465E-07
vn -0.99999994 4.371139E-08 -8.34465E-07
vn -0.9993407 0.036307033 -8.34465E-07
vn -0.9998145 0.019257067 -1.0728836E-06
vn -0.9985916 0.053054787 -8.34465E-07
vn -0.9993407 0.036307033 -8.34465E-07
vn -0.9996763 0.025441138 -1.0728836E-06
vn -0.99999994 4.371139E-08 -1.0728836E-06
vn -0.9998145 0.019257067 -1.0728836E-06
vn -0.9996763 0.025441138 -1.0728836E-06
vn -0.99999994 4.371139E-08 -1.0728836E-06
vn -0.6306751 -0.776047 -7.1525574E-07
vn -0.63067555 -0.77604675 -6.556511E-07
vn -0.6306754 -0.77604675 -5.9604645E-07
vn -0.6306751 -0.77604693 -5.9604645E-07
vn -0.9999999 4.371139E-08 -8.940697E-07
vn -0.9999999 4.371139E-08 -8.940697E-07
vn -0.9999999 4.371139E-08 -8.940697E-07
vn -0.9999999 4.371139E-08 -8.940697E-07
vn -0.63067114 0.77605015 -4.7683716E-07
vn -0.63067144 0.7760499 -4.7683716E-07
vn -0.63067144 0.77604985 -6.556511E-07
vn -0.63067114 0.77605015 -5.9604645E-07
vn -0.99999994 4.371139E-08 -1.0728836E-06
vn -0.99999994 4.371139E-08 -1.0728836E-06
vn -0.99999994 4.371139E-08 -1.0728836E-06
vn -0.99999994 4.371139E-08 -1.0728836E-06
vn -5.9604645E-08 0.040185563 0.9991922
vn -5.9604645E-08 0 0.99999994
vn -5.9604645E-08 0 0.99999994
vn -5.9604645E-08 0.075642034 0.997135
vn -5.9604645E-08 0.022627002 0.99974394
vn -5.9604645E-08 0.040185563 0.9991922
vn -5.9604645E-08 0.075642034 0.997135
vn 0 0.011581586 0.99993294
vn -5.9604645E-08 0 0.99999994
vn -5.9604645E-08 0.022627002 0.99974394
vn 0 0.011581586 0.99993294
vn -5.9604645E-08 0 0.99999994
vn 0 -0.7760463 0.630676
vn 0 -0.7760463 0.630676
vn 0 -0.7760463 0.630676
vn 0 -0.7760463 0.630676
vn -5.9604645E-08 0 0.99999994
vn -5.9604645E-08 0 0.99999994
vn -5.9604645E-08 0 0.99999994
vn -5.9604645E-08 0 0.99999994
vn 0 0.7760495 0.63067204
vn -5.9604645E-08 0.7760495 0.6306719
vn 0 0.7760495 0.63067204
vn -5.9604645E-08 0.7760495 0.6306719
vn -5.9604645E-08 0 0.99999994
vn -5.9604645E-08 0 0.99999994
vn -5.9604645E-08 0 0.99999994
vn -5.9604645E-08 0 0.99999994
vn 0.99920446 0.039878514 2.3841858E-07
vn 0.99999994 -4.371139E-08 2.3841858E-07
vn 0.99999994 -4.371139E-08 2.3841858E-07
vn 0.99830943 0.05812173 2.3841858E-07
vn 0.99973994 0.022808805 2.9802322E-07
vn 0.99920446 0.039878514 2.3841858E-07
vn 0.99830943 0.05812173 2.3841858E-07
vn 0.9998513 0.017247835 3.5762787E-07
vn 0.99999994 -4.371139E-08 3.5762787E-07
vn 0.99973994 0.022808805 2.9802322E-07
vn 0.9998513 0.017247835 3.5762787E-07
vn 0.99999994 -4.37114E-08 3.5762787E-07
vn 0.63067526 -0.7760469 -1.1920929E-07
vn 0.6306673 -0.7760533 -1.1920929E-07
vn 0.6306673 -0.7760534 1.7881393E-07
vn 0.6306751 -0.776047 2.3841858E-07
vn 0.99999994 -4.371139E-08 3.5762787E-07
vn 0.99999994 -4.371139E-08 3.5762787E-07
vn 0.99999994 -4.371139E-08 3.5762787E-07
vn 0.99999994 -4.371139E-08 3.5762787E-07
vn 0.6306711 0.77605027 1.7881393E-07
vn 0.6306712 0.77605015 1.7881393E-07
vn 0.6306712 0.77605015 1.7881393E-07
vn 0.63067114 0.7760503 1.7881393E-07
vn 0.99999994 -4.371139E-08 3.5762787E-07
vn 0.99999994 -4.371139E-08 3.5762787E-07
vn 0.99999994 -4.3711353E-08 3.5762787E-07
vn 0.99999994 -4.3711353E-08 3.5762787E-07
vn -3.5762787E-07 0.037557542 0.9992945
vn -3.5762787E-07 1.4210855E-14 0.99999994
vn -3.5762787E-07 1.4210855E-14 0.99999994
vn -3.5762787E-07 0.037557572 0.9992945
vn -2.3841858E-07 0.024508672 0.99969953
vn -3.5762787E-07 0.037557542 0.9992945
vn -3.5762787E-07 0.037557572 0.9992945
vn -2.3841858E-07 0.024508694 0.99969953
vn -2.3841858E-07 8.881784E-15 0.99999994
vn -2.3841858E-07 0.024508672 0.99969953
vn -2.3841858E-07 0.024508694 0.99969953
vn -2.3841858E-07 8.881784E-15 0.99999994
vn -1.1920929E-07 -0.77604645 0.6306759
vn -1.7881393E-07 -0.7760464 0.6306758
vn -1.7881393E-07 -0.7760462 0.630676
vn -1.7881393E-07 -0.7760462 0.630676
vn -2.3841858E-07 5.3290705E-15 0.99999994
vn -2.3841858E-07 5.3290705E-15 0.99999994
vn -2.3841858E-07 5.3290705E-15 0.99999994
vn -2.3841858E-07 5.3290705E-15 0.99999994
vn -1.7881393E-07 0.7760495 0.6306719
vn -1.1920929E-07 0.7760495 0.63067186
vn -5.9604645E-08 0.77604944 0.63067204
vn -1.1920929E-07 0.77604944 0.6306721
vn -2.3841858E-07 8.881784E-15 0.99999994
vn -2.3841858E-07 8.881784E-15 0.99999994
vn -2.3841858E-07 8.881784E-15 0.99999994
vn -2.3841858E-07 8.881784E-15 0.99999994
vn 0.99999994 -4.371139E-08 3.5762787E-07
vn 0.99999994 -4.371139E-08 3.5762787E-07
vn 0.99999994 -4.371139E-08 3.5762787E-07
vn 0.99999994 -4.371139E-08 3.5762787E-07
vn 0.7071101 -3.090877E-08 0.70710325
vn 0.7071101 -3.090877E-08 0.70710325
vn 0.7071101 -3.090877E-08 0.70710325
vn 0.7071101 -3.090877E-08 0.70710325
vn 0.008864847 0.9999607 0.00010041054
vn 0.6980227 0.71585345 0.017834008
vn 0.7071061 0.70710737 2.9802322E-07
vn 0.7071061 0.70710737 1.7881393E-07
vn 0.0070074797 0.71058404 0.70357746
vn 0.6980227 0.71585345 0.017834008
vn 0.008864847 0.9999607 0.00010041054
vn 9.903498E-05 0.9997442 0.022618955
vn -2.3841858E-07 5.3290705E-15 0.99999994
vn -2.3841858E-07 5.3290705E-15 0.99999994
vn -2.3841858E-07 5.3290705E-15 0.99999994
vn -2.3841858E-07 5.3290705E-15 0.99999994
vn -9.895675E-05 0.9997442 0.02261898
vn 0.008864847 0.9999607 0.00010041054
vn 4.371139E-08 1 0
vn 4.371139E-08 1 0
vn -9.895675E-05 0.9997442 0.02261898
vn 9.903498E-05 0.9997442 0.022618955
vn 0.008864847 0.9999607 0.00010041054
vn 0.0070074797 0.71058404 0.70357746
vn 9.903498E-05 0.9997442 0.022618955
vn -9.895675E-05 0.9997442 0.02261898
vn -0.0070076585 0.7105841 0.7035774
vn -0.70710856 3.0908698E-08 0.707105
vn -0.70710856 3.0908698E-08 0.707105
vn -0.70710856 3.0908698E-08 0.707105
vn -0.70710856 3.0908698E-08 0.707105
vn -0.6980207 0.71585554 0.017833471
vn -0.0070076585 0.7105841 0.7035774
vn -9.895675E-05 0.9997442 0.02261898
vn -0.008864729 0.9999607 0.00010040682
vn -0.6980207 0.71585554 0.017833471
vn -0.008864729 0.9999607 0.00010040682
vn -0.7071084 0.7071052 -1.1920929E-07
vn -0.7071083 0.7071052 -1.7881393E-07
vn -0.008864729 0.9999607 0.00010040682
vn -9.895675E-05 0.9997442 0.02261898
vn 4.371139E-08 1 0
vn -0.99999994 4.371139E-08 -3.5762787E-07
vn -0.99999994 4.371139E-08 -3.5762787E-07
vn -0.99999994 4.371139E-08 -3.5762787E-07
vn -0.99999994 4.371139E-08 -3.5762787E-07
vn -1.1920929E-07 -5.1474633E-09 0.99999994
vn -5.9604645E-08 0 0.99999994
vn -1.7881393E-07 -3.5038417E-09 0.9999999
vn -1.1920929E-07 5.1474704E-09 0.99999994
vn -1.1920929E-07 -5.1474633E-09 0.99999994
vn -1.7881393E-07 -3.5038417E-09 0.9999999
vn -1.7881393E-07 3.5038488E-09 0.9999999
vn -1.7881393E-07 3.5038488E-09 0.9999999
vn -5.9604645E-08 0 0.99999994
vn -1.1920929E-07 5.1474704E-09 0.99999994
vn -1.7881393E-07 3.5038488E-09 0.9999999
vn -1.7881393E-07 -3.5038417E-09 0.9999999
vn -1.7881393E-07 5.8153184E-08 1
vn -1.7881393E-07 -1.9881542E-08 1
vn -1.7881393E-07 -1.9881542E-08 1
vn -1.7881393E-07 5.8153184E-08 1
vn -2.9802322E-07 1.1615335E-08 1
vn -1.7881393E-07 4.737594E-10 1
vn -5.9604645E-08 0 0.99999994
vn -2.3841858E-07 -1.8545077E-08 0.99999994
vn -2.9802322E-07 1.1615335E-08 1
vn -1.7881393E-07 5.8153184E-08 1
vn -2.3841858E-07 -1.8545077E-08 0.99999994
vn -2.9802322E-07 -1.8545075E-08 0.9999999
vn -2.9802322E-07 1.1615335E-08 1
vn -2.9802322E-07 1.1615335E-08 1
vn -2.9802322E-07 -1.8545075E-08 0.9999999
vn -4.7683716E-07 1.9539925E-14 0.99999994
vn -4.7683716E-07 1.9539925E-14 0.99999994
vn -1.7881393E-07 4.737594E-10 1
vn -1.7881393E-07 9.272545E-09 0.9999999
vn -5.9604645E-08 0 0.99999994
vn -1.7881393E-07 -1.9881542E-08 1
vn -1.7881393E-07 4.737594E-10 1
vn -1.7881393E-07 9.272545E-09 0.9999999
vn -1.7881393E-07 9.272545E-09 0.9999999
vn -2.9802322E-07 1.0658141E-14 0.9999999
vn -1.7881393E-07 9.272545E-09 0.9999999
vn -1.7881393E-07 4.737594E-10 1
vn -2.9802322E-07 1.0658141E-14 0.9999999
vn 2.3841858E-07 -8.881784E-15 -0.99999994
vn 2.3841858E-07 -8.881784E-15 -0.99999994
vn 2.3841858E-07 -8.881784E-15 -0.99999994
vn 2.3841858E-07 -8.881784E-15 -0.99999994
vn 2.3841858E-07 -6.0292905E-07 -0.99999994
vn 2.3841858E-07 6.029284E-07 -0.99999994
vn 2.3841858E-07 2.814426E-07 -0.99999994
vn 2.3841858E-07 -2.814429E-07 -0.99999994
vn 2.3841858E-07 -2.814429E-07 -0.99999994
vn 2.3841858E-07 2.814426E-07 -0.99999994
vn 2.3841858E-07 -3.7838497E-08 -0.99999994
vn 2.3841858E-07 3.783849E-08 -0.99999994
vn 2.3841858E-07 3.783849E-08 -0.99999994
vn 2.3841858E-07 -3.7838497E-08 -0.99999994
vn 2.3841858E-07 -1.2329902E-07 -0.99999994
vn 2.3841858E-07 1.2329944E-07 -0.99999994
vn 2.3841858E-07 1.2329944E-07 -0.99999994
vn 2.3841858E-07 -1.2329902E-07 -0.99999994
vn 2.3841858E-07 -1.2060191E-07 -0.99999994
vn 2.3841858E-07 1.2060234E-07 -0.99999994
vn 2.3841858E-07 1.2060234E-07 -0.99999994
vn 2.3841858E-07 -1.2060191E-07 -0.99999994
vn 2.3841858E-07 -5.3290705E-15 -0.99999994
vn 2.3841858E-07 -5.3290705E-15 -0.99999994
vn 2.3841858E-07 -5.3290705E-15 -0.99999994
vn 2.3841858E-07 -5.3290705E-15 -0.99999994
vn 2.3841858E-07 -5.3290705E-15 -0.99999994
vn 2.3841858E-07 -5.3290705E-15 -0.99999994
vn 2.3841858E-07 3.359613E-08 -0.99999994
vn 2.3841858E-07 -1.6484604E-07 -0.99999994
vn 2.3841858E-07 -1.3124992E-07 -0.99999994
vn 2.3841858E-07 -1.3124992E-07 -0.99999994
vn 2.3841858E-07 9.771917E-08 -0.99999994
vn 2.3841858E-07 -9.771919E-08 -0.99999994
vn 2.3841858E-07 -1.6484604E-07 -0.99999994
vn 2.3841858E-07 3.359613E-08 -0.99999994
vn 2.3841858E-07 -9.772018E-08 -0.99999994
vn 2.3841858E-07 9.772017E-08 -0.99999994
vn 2.3841858E-07 -9.771919E-08 -0.99999994
vn 2.3841858E-07 9.771917E-08 -0.99999994
vn 2.3841858E-07 -8.270374E-08 -0.99999994
vn 2.3841858E-07 1.157405E-07 -0.99999994
vn 2.3841858E-07 9.772017E-08 -0.99999994
vn 2.3841858E-07 -9.772018E-08 -0.99999994
vn 2.3841858E-07 7.352795E-08 -0.99999994
vn 2.3841858E-07 -4.0491415E-08 -0.99999994
vn 2.3841858E-07 1.157405E-07 -0.99999994
vn 2.3841858E-07 -8.270374E-08 -0.99999994
vn 2.3841858E-07 5.60536E-08 -0.99999994
vn 2.3841858E-07 -5.605382E-08 -0.99999994
vn 2.3841858E-07 -4.0491415E-08 -0.99999994
vn 2.3841858E-07 7.352795E-08 -0.99999994
vn 2.3841858E-07 -5.3290705E-15 -0.99999994
vn 2.3841858E-07 -5.3290705E-15 -0.99999994
vn 2.3841858E-07 -5.605382E-08 -0.99999994
vn 2.3841858E-07 5.60536E-08 -0.99999994
vn 2.3841858E-07 -1.5070273E-07 -0.99999994
vn 2.3841858E-07 1.5070368E-07 -0.99999994
vn 1.7881393E-07 7.393765E-08 -1
vn 1.7881393E-07 -7.3937194E-08 -1
vn 1.7881393E-07 -7.3937194E-08 -1
vn 1.7881393E-07 7.393765E-08 -1
vn 1.7881393E-07 -5.3290705E-15 -1
vn 1.7881393E-07 -5.3290705E-15 -1
vn -4.371139E-08 -1 -6.1232336E-17
vn -4.371139E-08 -1 -6.1232336E-17
vn -4.371139E-08 -1 -6.1232336E-17
vn -4.371139E-08 -1 -6.1232336E-17
vn -2.3841858E-07 -0.057190504 0.9983634
vn -1.7881393E-07 -0.25747755 0.96628433
vn -1.7881393E-07 -0.2574776 0.96628433
vn -2.3841858E-07 -0.05719052 0.9983634
vn 0 -0.7760463 0.630676
vn 0 -0.7760463 0.630676
vn 0 -0.7760463 0.630676
vn 0 -0.7760463 0.630676
vn -0.99999994 4.371139E-08 -3.5762787E-07
vn -0.99999994 4.371139E-08 -3.5762787E-07
vn -0.99999994 4.371139E-08 -3.5762787E-07
vn -0.99999994 4.371139E-08 -3.5762787E-07
vn -0.6306713 0.77605003 -1.7881393E-07
vn -0.6306713 0.77605003 -1.7881393E-07
vn -0.6306712 0.77605015 -1.7881393E-07
vn -0.6306712 0.77605015 -1.7881393E-07
vn -4.371139E-08 -1 -6.123234E-17
vn -4.371139E-08 -1 -6.123234E-17
vn -4.3711385E-08 -0.99999994 -6.123234E-17
vn -4.371139E-08 -1 -6.123234E-17
# 748 vertex normals

vt 0.70703125 0.99396515 0
vt 0.8208008 0.97579956 0
vt 0.71533203 0.97579956 0
vt 0.71533203 0.99396515 0
vt 0.8208008 0.6821289 0
vt 0.71533203 0.6821289 0
vt 0.70703125 0.66381836 0
vt 0.71533203 0.66381836 0
vt 0.70410156 0.99396515 0
vt 0.70410156 0.66381836 0
vt 0.68359375 0.66381836 0
vt 0.68359375 0.99396515 0
vt 0.6713867 0.47509766 0
vt 0.6713867 0.48242188 0
vt 0.05621338 0.48242188 0
vt 0.05621338 0.4757494 0
vt 0.86279297 0.93680894 0
vt 0.8676758 0.940979 0
vt 0.8676758 0.7109375 0
vt 0.86279297 0.7109375 0
vt 0.05621338 0.4864916 0
vt 0.6713867 0.48583984 0
vt 0.67626953 0.49072266 0
vt 0.051361084 0.49072266 0
vt 0.85009766 0.9361572 0
vt 0.85791016 0.9361572 0
vt 0.85791016 0.7109375 0
vt 0.85009766 0.7109375 0
vt 0.9248047 0.9734955 0
vt 0.9370117 0.9734955 0
vt 0.9370117 0.7109375 0
vt 0.9248047 0.7109375 0
vt 0.86279297 0.9361572 0
vt 0.86279297 0.7109375 0
vt 0.8676758 0.7109375 0
vt 0.8676758 0.940979 0
vt 0.7089844 0.55078125 0
vt 0.7089844 0.5629883 0
vt 0.01878357 0.5629883 0
vt 0.01878357 0.55078125 0
vt 0.85009766 0.9361572 0
vt 0.85009766 0.7109375 0
vt 0.85791016 0.7109375 0
vt 0.85791016 0.9361572 0
vt 0.9248047 0.9734955 0
vt 0.9248047 0.7109375 0
vt 0.9370117 0.7109375 0
vt 0.9370117 0.9734955 0
vt 0.008361816 0.5722656 0
vt 0.5073242 0.5722656 0
vt 0.5073242 0.75512695 0
vt 0.008361816 0.75512695 0
vt 0.44335938 0.7623291 0
vt 0.44335938 0.92681885 0
vt 0.011703491 0.92681885 0
vt 0.011703491 0.7623291 0
vt 0.06829834 0.20263672 0
vt 0.3635254 0.20263672 0
vt 0.3635254 0.30859375 0
vt 0.06829834 0.30859375 0
vt 0.5800781 0.99230194 0
vt 0.46679688 0.99230194 0
vt 0.46679688 0.7866211 0
vt 0.5800781 0.7590332 0
vt 0.5961914 0.9905548 0
vt 0.5961914 0.6357422 0
vt 0.6147461 0.6357422 0
vt 0.6147461 0.9905548 0
vt 0.3635254 0.20263672 0
vt 0.06829834 0.20263672 0
vt 0.06829834 0.010253906 0
vt 0.3635254 0.010253906 0
vt 0.5800781 0.99230194 0
vt 0.5800781 0.7590332 0
vt 0.46679688 0.7866211 0
vt 0.46679688 0.99230194 0
vt 0.9248047 0.7109375 0
vt 0.9248047 0.9734955 0
vt 0.9160156 0.9649353 0
vt 0.9160156 0.7109375 0
vt 0.90234375 0.951355 0
vt 0.90234375 0.7109375 0
vt 0.8901367 0.9467468 0
vt 0.8901367 0.7109375 0
vt 0.8808594 0.9461975 0
vt 0.8808594 0.7109375 0
vt 0.87597656 0.940979 0
vt 0.87597656 0.7109375 0
vt 0.8725586 0.7109375 0
vt 0.8725586 0.940979 0
vt 0.037384033 0.04296875 0
vt 0.043884277 0.04296875 0
vt 0.043884277 0.064941406 0
vt 0.037384033 0.32226562 0
vt 0.046936035 0.067871094 0
vt 0.05606079 0.32226562 0
vt 0.05606079 0.067871094 0
vt 0.43774414 0.9577942 0
vt 0.43774414 0.935791 0
vt 0.36547852 0.935791 0
vt 0.36547852 0.9577942 0
vt 0.35888672 0.935791 0
vt 0.35888672 0.9531555 0
vt 0.09313965 0.935791 0
vt 0.09313965 0.9531555 0
vt 0.08892822 0.9573364 0
vt 0.08892822 0.935791 0
vt 0.08557129 0.9573364 0
vt 0.08557129 0.935791 0
vt 0.08135986 0.95380723 0
vt 0.08135986 0.935791 0
vt 0.014480591 0.935791 0
vt 0.014480591 0.9531555 0
vt 0.43701172 0.97843933 0
vt 0.43701172 0.9680176 0
vt 0.3647461 0.9680176 0
vt 0.3647461 0.97843933 0
vt 0.3581543 0.9680176 0
vt 0.3581543 0.97843933 0
vt 0.09246826 0.9680176 0
vt 0.09246826 0.97843933 0
vt 0.088256836 0.97843933 0
vt 0.088256836 0.9680176 0
vt 0.0848999 0.9680176 0
vt 0.0848999 0.97843933 0
vt 0.08068848 0.9680176 0
vt 0.08068848 0.97843933 0
vt 0.013809204 0.9680176 0
vt 0.013809204 0.97843933 0
vt 0.62939453 0.018554688 0
vt 0.4345703 0.018554688 0
vt 0.4345703 0.091308594 0
vt 0.62939453 0.091308594 0
vt 0.43920898 0.09765625 0
vt 0.62939453 0.09765625 0
vt 0.43920898 0.36376953 0
vt 0.62939453 0.36376953 0
vt 0.62939453 0.36767578 0
vt 0.4350586 0.36767578 0
vt 0.62939453 0.37109375 0
vt 0.4350586 0.37109375 0
vt 0.62939453 0.37548828 0
vt 0.43920898 0.37548828 0
vt 0.43920898 0.4423828 0
vt 0.62939453 0.4423828 0
vt 0.6972656 0.018066406 0
vt 0.63964844 0.018066406 0
vt 0.63964844 0.09033203 0
vt 0.6972656 0.09033203 0
vt 0.64404297 0.09667969 0
vt 0.6928711 0.09667969 0
vt 0.64404297 0.36279297 0
vt 0.6928711 0.36279297 0
vt 0.6401367 0.36669922 0
vt 0.69677734 0.36669922 0
vt 0.6401367 0.3701172 0
vt 0.69677734 0.3701172 0
vt 0.64404297 0.37451172 0
vt 0.6928711 0.37451172 0
vt 0.64404297 0.44140625 0
vt 0.6928711 0.44140625 0
vt 0.37353516 0.32226562 0
vt 0.37353516 0.067871094 0
vt 0.38256836 0.067871094 0
vt 0.39208984 0.32226562 0
vt 0.3857422 0.064941406 0
vt 0.39208984 0.04296875 0
vt 0.3857422 0.04296875 0
vt 0.71728516 0.44189453 0
vt 0.70654297 0.44189453 0
vt 0.70654297 0.3696289 0
vt 0.71728516 0.3696289 0
vt 0.70654297 0.36328125 0
vt 0.71728516 0.36328125 0
vt 0.70654297 0.09716797 0
vt 0.71728516 0.09716797 0
vt 0.71728516 0.09277344 0
vt 0.70654297 0.09277344 0
vt 0.70654297 0.08984375 0
vt 0.71728516 0.08984375 0
vt 0.70654297 0.08544922 0
vt 0.71728516 0.08544922 0
vt 0.70654297 0.018554688 0
vt 0.71728516 0.018554688 0
vt 0.43701172 0.98799896 0
vt 0.43701172 0.99406815 0
vt 0.3647461 0.99406815 0
vt 0.3647461 0.98799896 0
vt 0.3581543 0.99406815 0
vt 0.3581543 0.98799896 0
vt 0.09246826 0.99406815 0
vt 0.09246826 0.98799896 0
vt 0.088256836 0.99406815 0
vt 0.088256836 0.98799896 0
vt 0.0848999 0.99406815 0
vt 0.0848999 0.98799896 0
vt 0.08068848 0.99406815 0
vt 0.08068848 0.98799896 0
vt 0.013809204 0.99406815 0
vt 0.013809204 0.98799896 0
vt 0.71728516 0.018554688 0
vt 0.72314453 0.018554688 0
vt 0.72314453 0.08544922 0
vt 0.71728516 0.08544922 0
vt 0.72314453 0.08984375 0
vt 0.71728516 0.08984375 0
vt 0.72314453 0.09277344 0
vt 0.71728516 0.09277344 0
vt 0.72314453 0.09716797 0
vt 0.71728516 0.09716797 0
vt 0.72314453 0.36328125 0
vt 0.71728516 0.36328125 0
vt 0.72314453 0.3696289 0
vt 0.71728516 0.3696289 0
vt 0.72314453 0.44189453 0
vt 0.71728516 0.44189453 0
vt 0.051361084 0.4975586 0
vt 0.051361084 0.49414062 0
vt 0.67626953 0.49414062 0
vt 0.67626953 0.4975586 0
vt 0.04611206 0.50268555 0
vt 0.6816406 0.50268555 0
vt 0.045562744 0.5119629 0
vt 0.6821289 0.5124512 0
vt 0.040924072 0.5241699 0
vt 0.6870117 0.5241699 0
vt 0.027359009 0.5378418 0
vt 0.7001953 0.53759766 0
vt 0.7089844 0.5463867 0
vt 0.01878357 0.5463867 0
vt 0.9160156 0.9649353 0
vt 0.9248047 0.9734955 0
vt 0.9248047 0.7109375 0
vt 0.9160156 0.7109375 0
vt 0.90234375 0.951355 0
vt 0.90234375 0.7109375 0
vt 0.8901367 0.9467468 0
vt 0.8901367 0.7109375 0
vt 0.8808594 0.9461975 0
vt 0.8808594 0.7109375 0
vt 0.87597656 0.940979 0
vt 0.87597656 0.7109375 0
vt 0.8725586 0.7109375 0
vt 0.8725586 0.940979 0
vt 0.70654297 0.3696289 0
vt 0.70654297 0.44189453 0
vt 0.71728516 0.44189453 0
vt 0.71728516 0.3696289 0
vt 0.70654297 0.36328125 0
vt 0.71728516 0.36328125 0
vt 0.70654297 0.09716797 0
vt 0.71728516 0.09716797 0
vt 0.71728516 0.09277344 0
vt 0.70654297 0.09277344 0
vt 0.70654297 0.08984375 0
vt 0.71728516 0.08984375 0
vt 0.70654297 0.08544922 0
vt 0.71728516 0.08544922 0
vt 0.70654297 0.018554688 0
vt 0.71728516 0.018554688 0
vt 0.3647461 0.99406815 0
vt 0.43701172 0.99406815 0
vt 0.43701172 0.98799896 0
vt 0.3647461 0.98799896 0
vt 0.3581543 0.99406815 0
vt 0.3581543 0.98799896 0
vt 0.09246826 0.99406815 0
vt 0.09246826 0.98799896 0
vt 0.088256836 0.99406815 0
vt 0.088256836 0.98799896 0
vt 0.0848999 0.99406815 0
vt 0.0848999 0.98799896 0
vt 0.08068848 0.99406815 0
vt 0.08068848 0.98799896 0
vt 0.013809204 0.99406815 0
vt 0.013809204 0.98799896 0
vt 0.72314453 0.08544922 0
vt 0.72314453 0.018554688 0
vt 0.71728516 0.018554688 0
vt 0.71728516 0.08544922 0
vt 0.72314453 0.08984375 0
vt 0.71728516 0.08984375 0
vt 0.72314453 0.09277344 0
vt 0.71728516 0.09277344 0
vt 0.72314453 0.09716797 0
vt 0.71728516 0.09716797 0
vt 0.72314453 0.36328125 0
vt 0.71728516 0.36328125 0
vt 0.72314453 0.3696289 0
vt 0.71728516 0.3696289 0
vt 0.72314453 0.44189453 0
vt 0.71728516 0.44189453 0
vt 0.6489258 0.6538086 0
vt 0.6489258 0.8869629 0
vt 0.62939453 0.8869629 0
vt 0.62939453 0.6328125 0
vt 0.96484375 0.6538086 0
vt 0.984375 0.6328125 0
vt 0.984375 0.8869629 0
vt 0.96484375 0.8869629 0
vt 0.36547852 0.935791 0
vt 0.43774414 0.935791 0
vt 0.43774414 0.9577942 0
vt 0.36547852 0.9577942 0
vt 0.35888672 0.935791 0
vt 0.35888672 0.9531555 0
vt 0.09313965 0.935791 0
vt 0.09313965 0.9531555 0
vt 0.08892822 0.9573364 0
vt 0.08892822 0.935791 0
vt 0.08557129 0.9573364 0
vt 0.08557129 0.935791 0
vt 0.08135986 0.9531555 0
vt 0.08135986 0.935791 0
vt 0.014480591 0.935791 0
vt 0.014480591 0.9531555 0
vt 0.3647461 0.9680176 0
vt 0.43701172 0.9680176 0
vt 0.43701172 0.97843933 0
vt 0.3647461 0.97843933 0
vt 0.3581543 0.9680176 0
vt 0.3581543 0.97843933 0
vt 0.09246826 0.9680176 0
vt 0.09246826 0.97843933 0
vt 0.088256836 0.97843933 0
vt 0.088256836 0.9680176 0
vt 0.0848999 0.9680176 0
vt 0.0848999 0.97843933 0
vt 0.08068848 0.9680176 0
vt 0.08068848 0.97843933 0
vt 0.013809204 0.9680176 0
vt 0.013809204 0.97843933 0
vt 0.4345703 0.091308594 0
vt 0.4345703 0.018554688 0
vt 0.62939453 0.018554688 0
vt 0.62939453 0.091308594 0
vt 0.43920898 0.09765625 0
vt 0.62939453 0.09765625 0
vt 0.43920898 0.36376953 0
vt 0.62939453 0.36376953 0
vt 0.62939453 0.36767578 0
vt 0.4350586 0.36767578 0
vt 0.62939453 0.37109375 0
vt 0.4350586 0.37109375 0
vt 0.62939453 0.37548828 0
vt 0.43920898 0.37548828 0
vt 0.43920898 0.4423828 0
vt 0.62939453 0.4423828 0
vt 0.63964844 0.09033203 0
vt 0.63964844 0.018066406 0
vt 0.6972656 0.018066406 0
vt 0.6972656 0.09033203 0
vt 0.64404297 0.09667969 0
vt 0.6928711 0.09667969 0
vt 0.64404297 0.36279297 0
vt 0.6928711 0.36279297 0
vt 0.6401367 0.36669922 0
vt 0.69677734 0.36669922 0
vt 0.6401367 0.3701172 0
vt 0.69677734 0.3701172 0
vt 0.64404297 0.37451172 0
vt 0.6928711 0.37451172 0
vt 0.64404297 0.44140625 0
vt 0.6928711 0.44140625 0
vt 0.76708984 0.009277344 0
vt 0.98779297 0.009277344 0
vt 0.98779297 0.024414062 0
vt 0.76708984 0.024414062 0
vt 0.7480469 0.028320312 0
vt 0.7480469 0.022949219 0
vt 0.77246094 0.030273438 0
vt 0.98779297 0.030273438 0
vt 0.7631836 0.028320312 0
vt 0.7480469 0.60180664 0
vt 0.76904297 0.5961914 0
vt 0.98779297 0.5998535 0
vt 0.76904297 0.033691406 0
vt 0.7631836 0.60180664 0
vt 0.7480469 0.60668945 0
vt 0.76708984 0.6052246 0
vt 0.77246094 0.5998535 0
vt 0.98779297 0.6052246 0
vt 0.98779297 0.6203613 0
vt 0.76708984 0.6203613 0
vt 0.011741638 0.46484375 0
vt 0.011741638 0.39794922 0
vt 0.015930176 0.39453125 0
vt 0.4177246 0.46484375 0
vt 0.41357422 0.39453125 0
vt 0.4177246 0.39794922 0
vt 0.015930176 0.39111328 0
vt 0.41357422 0.39111328 0
vt 0.037384033 0.32226562 0
vt 0.011741638 0.3876953 0
vt 0.011741638 0.12207031 0
vt 0.01638794 0.115234375 0
vt 0.01638794 0.04296875 0
vt 0.037384033 0.04296875 0
vt 0.39208984 0.32226562 0
vt 0.4177246 0.3876953 0
vt 0.4177246 0.12207031 0
vt 0.41308594 0.115234375 0
vt 0.41308594 0.04296875 0
vt 0.39208984 0.04296875 0
vt 0.5902858 0.7374335 0
vt 0.5902858 0.57752687 0
vt 0.5920745 0.57752687 0
vt 0.5920745 0.7374335 0
vt 0.5902858 0.5795157 0
vt 0.5902858 0.7354447 0
vt 0.5885859 0.7323008 0
vt 0.58858585 0.5826595 0
vt 0.5869147 0.73123074 0
vt 0.5869146 0.5837296 0
vt 0.58547765 0.73110104 0
vt 0.58547765 0.5838594 0
vt 0.5849473 0.7298884 0
vt 0.5849473 0.58507204 0
vt 0.5844168 0.7298884 0
vt 0.5844168 0.58507204 0
vt 0.74072504 0.6264031 0
vt 0.59852767 0.6264031 0
vt 0.59852767 0.56689847 0
vt 0.74072504 0.56689847 0
vt 0.5833132 0.7287654 0
vt 0.5833132 0.5861949 0
vt 0.5844168 0.5861949 0
vt 0.5844168 0.7287654 0
vt 0.57273054 0.7253442 0
vt 0.57273054 0.5896162 0
vt 0.5833132 0.5896162 0
vt 0.5833132 0.7253442 0
vt 0.5721926 0.7263872 0
vt 0.5721926 0.5885731 0
vt 0.57165474 0.7263872 0
vt 0.57165474 0.5885731 0
vt 0.5711168 0.7253442 0
vt 0.5711168 0.5896162 0
vt 0.5290734 0.7253442 0
vt 0.5290734 0.5896162 0
vt 0.5280346 0.7265015 0
vt 0.5280346 0.5884588 0
vt 0.5165964 0.7265015 0
vt 0.5165964 0.5884588 0
vt 0.5165964 0.5848589 0
vt 0.5165964 0.7301014 0
vt 0.515715 0.7314904 0
vt 0.515715 0.58347 0
vt 0.513265 0.7314904 0
vt 0.513265 0.58347 0
vt 0.70654297 0.09716797 0
vt 0.70654297 0.09277344 0
vt 0.7398737 0.5659614 0
vt 0.59937906 0.5659614 0
# 454 texture coords

usemtl fireplace
s 1
f 39/1/1 1/2/2 2/3/3
f 39/1/4 2/3/5 3/4/6
f 39/1/7 26/6/8 4/5/9 1/2/10
f 39/1/11 38/9/12 5/7/13 26/6/14
f 5/7/15 144/8/16 26/6/17
f 38/9/18 79/10/19 5/7/20
f 81/11/21 79/10/22 38/9/23 37/12/24
f 6/13/25 7/14/26 8/15/27 19/16/28
f 8/17/29 9/18/30 10/19/31 11/20/32
f 8/21/33 7/22/34 105/23/35 9/24/36
f 19/25/37 8/26/38 11/27/39 20/28/40
f 12/29/41 22/30/42 21/31/43 110/32/44
f 7/33/45 15/34/46 35/35/47 105/36/48
f 13/37/49 18/38/50 22/39/51 12/40/52
f 6/41/53 14/42/54 15/43/55 7/44/56
f 13/45/57 16/46/58 17/47/59 18/48/60
f 6/49/61 19/50/62 20/51/63 14/52/64
f 21/53/65 22/54/66 18/55/67 17/56/68
f 25/57/69 27/58/70 143/59/71 145/60/72
f 2/61/73 1/62/74 25/63/75 145/64/76
f 40/65/77 23/66/78 205/67/79 24/68/80
f 27/69/81 25/70/82 1/71/83 4/72/84
f 26/73/85 143/74/86 27/75/87 4/76/88
f 16/77/89 13/78/90 108/79/91 28/80/92
f 28/80/93 108/79/94 29/81/95 30/82/96
f 30/82/97 29/81/98 107/83/99 31/84/100
f 31/84/101 107/83/102 106/85/103 32/86/104
f 32/86/105 106/85/106 33/87/107 34/88/108
f 35/89/109 34/88/110 33/87/111 105/90/112
f 36/91/113 37/92/114 38/93/115 24/94/116
f 24/94/117 38/93/118 39/95/119
f 39/95/120 3/97/121 40/96/122 24/94/123
f 50/98/124 41/99/125 204/100/126 51/101/127
f 51/101/128 204/100/129 42/102/130 52/103/131
f 52/103/132 42/102/133 203/104/134 43/105/135
f 54/106/136 43/105/137 203/104/138 44/107/139
f 55/108/140 54/106/141 44/107/142 45/109/143
f 46/110/144 55/108/145 45/109/146 199/111/147
f 46/110/148 199/111/149 47/112/150 48/113/151
f 49/114/152 50/115/153 51/116/154 128/117/155
f 128/117/156 51/116/157 52/118/158 53/119/159
f 53/119/160 52/118/161 43/120/162 129/121/163
f 130/122/164 129/121/165 43/120/166 54/123/167
f 130/122/168 54/123/169 55/124/170 131/125/171
f 131/125/172 55/124/173 46/126/174 132/127/175
f 132/127/176 46/126/177 48/128/178 133/129/179
f 56/130/180 57/131/181 120/132/182 58/133/183
f 58/133/184 120/132/185 59/134/186 60/135/187
f 60/135/188 59/134/189 121/136/190 61/137/191
f 62/138/192 61/137/193 121/136/194 122/139/195
f 65/142/196 124/143/197 66/144/198 67/145/199
f 141/146/200 127/147/201 126/148/202 68/149/203
f 68/149/204 126/148/205 69/150/206 138/151/207
f 138/151/208 69/150/209 70/152/210 136/153/211
f 136/153/212 70/152/213 71/154/214 72/155/215
f 72/155/216 71/154/217 73/156/218 74/157/219
f 74/157/220 73/156/221 75/158/222 76/159/223
f 76/159/224 75/158/225 77/160/226 78/161/227
f 23/162/228 144/163/229 5/164/230 205/165/231
f 205/165/232 5/164/233 79/166/234 80/167/235
f 80/167/236 79/166/237 81/168/238
f 82/169/239 161/170/240 83/171/241 103/172/242
f 103/172/243 83/171/244 164/173/245 84/174/246
f 84/174/247 164/173/248 166/175/249 85/176/250
f 100/177/251 85/176/252 166/175/253 86/178/254
f 100/177/255 86/178/256 170/179/257 87/180/258
f 87/180/259 170/179/260 172/181/261 97/182/262
f 97/182/263 172/181/264 173/183/265 88/184/266
f 89/185/267 175/186/268 90/187/269 153/188/270
f 153/188/271 90/187/272 176/189/273 155/190/274
f 155/190/275 176/189/276 91/191/277 156/192/278
f 156/192/279 91/191/280 92/193/281 93/194/282
f 93/194/283 92/193/284 94/195/285 158/196/286
f 158/196/287 94/195/288 178/197/289 160/198/290
f 160/198/291 178/197/292 95/199/293 96/200/294
f 88/201/295 180/202/296 179/203/297 97/204/298
f 97/204/299 179/203/300 98/205/301 87/206/302
f 87/206/303 98/205/304 99/207/305 100/208/306
f 100/208/307 99/207/308 101/209/309 85/210/310
f 85/210/311 101/209/312 177/211/313 84/212/314
f 84/212/315 177/211/316 102/213/317 103/214/318
f 103/214/319 102/213/320 104/215/321 82/216/322
f 118/217/323 9/218/324 105/219/325 33/220/326
f 116/221/327 118/217/328 33/220/329 106/222/330
f 112/225/331 114/223/332 107/224/333 29/226/334
f 109/227/335 112/225/336 29/226/337 108/228/338
f 109/227/339 108/228/340 13/229/341 12/230/342
f 109/231/343 12/232/344 110/233/345 111/234/346
f 112/235/347 109/231/348 111/234/349 113/236/350
f 114/237/351 112/235/352 113/236/353 115/238/354
f 116/239/355 114/237/356 115/238/357 117/240/358
f 118/241/359 116/239/360 117/240/361 119/242/362
f 118/241/363 119/242/364 10/243/365 9/244/366
f 120/245/367 57/246/368 142/247/369 140/248/370
f 59/249/371 120/245/372 140/248/373 139/250/374
f 121/251/375 59/249/376 139/250/377 137/252/378
f 64/255/379 122/254/380 135/253/381 123/256/382
f 124/257/383 64/255/384 123/256/385 134/258/386
f 66/259/387 124/257/388 134/258/389 125/260/390
f 126/261/391 127/262/392 49/263/393 128/264/394
f 69/265/395 126/261/396 128/264/397 53/266/398
f 70/267/399 69/265/400 53/266/401 129/268/402
f 71/269/403 70/267/404 129/268/405 130/270/406
f 73/271/407 71/269/408 130/270/409 131/272/410
f 75/273/411 73/271/412 131/272/413 132/274/414
f 77/275/415 75/273/416 132/274/417 133/276/418
f 76/277/419 78/278/420 125/279/421 134/280/422
f 74/281/423 76/277/424 134/280/425 123/282/426
f 72/283/427 74/281/428 123/282/429 135/284/430
f 136/285/431 72/283/432 135/284/433 137/286/434
f 138/287/435 136/285/436 137/286/437 139/288/438
f 68/289/439 138/287/440 139/288/441 140/290/442
f 141/291/443 68/289/444 140/290/445 142/292/446
f 143/293/447 26/294/448 144/295/449 23/296/450
f 145/297/451 143/293/452 23/296/453 40/298/454
f 145/297/455 40/298/456 3/299/457 2/300/458
f 207/301/459 208/302/460 152/303/461 151/304/462
f 206/305/463 207/301/464 151/304/465 154/306/466
f 146/307/467 206/305/468 154/306/469 147/308/470
f 146/307/471 147/308/472 157/309/473 202/310/474
f 202/310/475 157/309/476 148/311/477 201/312/478
f 201/312/479 148/311/480 159/313/481 149/314/482
f 200/315/483 149/314/484 159/313/485 150/316/486
f 151/317/487 152/318/488 89/319/489 153/320/490
f 154/321/491 151/317/492 153/320/493 155/322/494
f 147/323/495 154/321/496 155/322/497 156/324/498
f 147/323/499 156/324/500 93/325/501 157/326/502
f 148/327/503 157/326/504 93/325/505 158/328/506
f 159/329/507 148/327/508 158/328/509 160/330/510
f 150/331/511 159/329/512 160/330/513 96/332/514
f 83/333/515 161/334/516 162/335/517 163/336/518
f 164/337/519 83/333/520 163/336/521 165/338/522
f 166/339/523 164/337/524 165/338/525 167/340/526
f 166/339/527 167/340/528 168/341/529 86/342/530
f 86/342/531 168/341/532 169/343/533 170/344/534
f 170/344/535 169/343/536 171/345/537 172/346/538
f 173/347/539 172/346/540 171/345/541 174/348/542
f 90/349/543 175/350/544 104/351/545 102/352/546
f 176/353/547 90/349/548 102/352/549 177/354/550
f 91/355/551 176/353/552 177/354/553 101/356/554
f 92/357/555 91/355/556 101/356/557 99/358/558
f 94/359/559 92/357/560 99/358/561 98/360/562
f 178/361/563 94/359/564 98/360/565 179/362/566
f 95/363/567 178/361/568 179/362/569 180/364/570
f 181/365/571 182/366/572 183/367/573 184/368/574
f 185/369/575 181/370/576 184/368/577 188/373/578
f 186/371/579 184/368/580 183/367/581 187/372/582
f 188/373/583 184/368/584 186/371/585 192/377/586
f 189/374/587 185/369/588 188/373/589 193/378/590
f 190/375/591 186/371/592 187/372/593 191/376/594
f 190/375/595 192/377/596 186/371/597
f 188/373/598 192/377/599 190/375/600 193/378/601
f 198/379/602 189/374/603 193/378/604 194/380/605
f 194/380/606 193/378/607 190/375/608 195/381/609
f 194/380/610 195/381/611 191/376/612 196/382/613
f 195/381/614 190/375/615 191/376/616
f 194/380/617 196/382/618 197/383/619 198/384/620
f 47/385/621 199/386/622 45/387/623
f 200/388/624 47/385/625 45/387/626 201/389/627
f 201/389/628 149/390/629 200/388/630
f 201/389/631 45/387/632 44/391/633 202/392/634
f 202/392/635 44/391/636 24/393/637 205/399/638
f 203/394/639 42/395/640 24/393/641 44/391/642
f 42/395/643 204/396/644 24/393/645
f 24/393/646 204/396/647 41/397/648 36/398/649
f 205/399/650 206/401/651 146/400/652 202/392/653
f 205/399/654 207/402/655 206/401/656
f 208/403/657 207/402/658 205/399/659 80/404/660
f 16/405/661 110/406/662 21/407/663 17/408/664
f 111/409/665 28/410/666 30/411/667 113/412/668
f 113/412/669 30/411/670 31/413/671 115/414/672
f 115/414/673 31/413/674 32/415/675 117/416/676
f 117/416/677 32/415/678 34/417/679 119/418/680
f 119/418/681 34/417/682 35/419/683 10/420/684
f 14/425/685 20/426/686 11/427/687 15/428/688
f 171/429/689 65/430/690 67/431/691 174/432/692
f 169/433/693 63/434/694 65/430/695 171/429/696
f 168/435/697 62/436/698 63/434/699 169/433/700
f 167/437/701 61/438/702 62/436/703 168/435/704
f 165/439/705 60/440/706 61/438/707 167/437/708
f 163/441/709 58/442/710 60/440/711 165/439/712
f 162/443/713 56/444/714 58/442/715 163/441/716
f 191/445/717 187/446/718 183/447/719 196/448/720
f 196/448/721 183/447/722 182/449/723 197/450/724
f 197/421/725 182/422/726 181/423/727 198/424/728
f 106/222/729 107/224/730 114/223/731 116/221/732
f 135/284/733 122/452/734 121/451/735 137/286/736
f 122/139/737 64/141/738 63/140/739 62/138/740
f 64/141/741 124/143/742 65/142/743 63/140/744
f 198/424/745 181/423/746 185/454/747 189/453/748
#190 polygons

